<?xml version="1.0" encoding="UTF-8"?><svg id="Layer_1" xmlns="http://www.w3.org/2000/svg" viewBox="0 0 2059.78116 1098.35127"><defs><style>.cls-1{fill:#fff;}</style></defs><path class="cls-1" d="M349.38284,674.17535c-2.34389-1.40553-6.82403-2.91089-12.36231-2.91089h-5.94158v21.32259h5.94158c5.51832,0,9.90662-.97828,12.03888-2.68729,2.09233-1.66907,3.34214-4.75166,3.34214-8.24953,0-3.38606-1.21387-6.39279-3.0187-7.47489Z"/><path class="cls-1" d="M265.3872,668.32162h-9.43994v29.43037h7.21884c7.21884,0,12.21657-1.11055,15.54822-3.88668,3.33166-2.77663,4.99773-6.10828,4.99773-11.66104,0-4.99773-1.66608-8.32939-4.44271-10.55049-2.77613-2.2211-7.21834-3.33215-13.88215-3.33215Z"/><path class="cls-1" d="M423.08954,670.1544c-7.19538,0-12.57793,2.23208-15.99993,6.63636-3.61366,5.16694-5.49037,12.44617-5.49037,21.51825s1.87671,16.34732,5.57821,21.63005c3.11054,4.4482,8.16567,6.52056,15.91209,6.52056,7.19538,0,12.57793-2.23208,15.99993-6.63636,3.5897-4.6159,5.49037-12.05485,5.49037-21.51426,0-9.07208-1.87671-16.35131-5.57821-21.63405-3.11054-4.4482-8.16567-6.52056-15.91209-6.52056Z"/><path class="cls-1" d="M754.49564,96.2028H210.7166c-76.65602,0-76.65602-5.39004-76.65602,49.10785v772.54921q0,55.09634,42.52041,55.09634h186.25026c20.36178,0,40.12461-4.79109,58.09059-13.77384l117.97853-59.88794c17.96648-8.98274,37.72931-13.77384,58.09109-13.77384h185.65131c36.53141,0,43.11886,5.98849,43.11886-43.7183V141.1185c0-48.5089,0-44.9157-71.26598-44.9157ZM373.84892,326.45885l12.09678-12.09678h26.64176l12.09728,12.09678v20.59637h-18.43316v-13.24976l-4.17867-4.17567h-5.61265l-4.03342,4.17567v61.05988l4.03342,4.03342h5.61265l4.17867-4.03342v-13.967h18.43316v20.73562l-12.09728,12.09728h-26.64176l-12.09678-12.09728v-75.17512ZM237.26653,409.99081c.00599-.24108.01847-.47866.02446-.71674.03394-.9708.07437-1.9381.12977-2.90241.01248-.18518.02496-.36785.03394-.55004.06838-1.05415.14225-2.10181.23209-3.14648.00898-.08934.01847-.17619.02446-.26553.10532-1.15597.22261-2.30895.35538-3.45544v-.00299l25.39046-2.11729c1.04117-6.16618,2.64835-12.1432,4.77512-17.87065l-20.93977-14.52901c.00299-.00349.00299-.00649.00299-.00948.46668-1.07561.94584-2.14174,1.43748-3.20188.04292-.09583.08934-.19466.13576-.29049.46968-1.00773.95532-2.00598,1.44946-2.99824.04043-.07387.07736-.15123.1148-.2286,1.0816-2.14823,2.2221-4.26202,3.42399-6.33588.00948-.02146.02196-.04043.03444-.06189.55004-.94884,1.11554-1.88819,1.68754-2.81856.14824-.23808.29648-.47317.44173-.71075.45121-.72024.90891-1.43748,1.37559-2.14524.18518-.29049.37384-.57799.56551-.86199.4572-.6863.92088-1.3666,1.38757-2.03992.18567-.26304.36486-.52857.54704-.78812.64587-.91489,1.30122-1.82081,1.96905-2.71673.00299,0,.00299-.00349.00599-.00649l23.05955,10.86993c3.94059-4.75316,8.3204-9.12998,13.07057-13.07356l-10.86993-23.05955c.00349,0,.00649-.00299.00948-.00299.89293-.67082,1.79884-1.32318,2.71374-1.96905.25954-.18518.52508-.36486.78812-.54704.67681-.46968,1.35363-.93336,2.04292-1.38757.2845-.19166.5715-.38033.85899-.569.71075-.46369,1.425-.92088,2.14823-1.37209.23509-.14824.46968-.29648.70776-.44173.93336-.572,1.87271-1.1375,2.81856-1.68754.02196-.01248.04342-.02496.06189-.03743,2.07386-1.1989,4.18765-2.3394,6.33588-3.4215.07736-.03993.15473-.07687.23209-.1143.98877-.49763,1.98701-.97978,2.99475-1.44946.09583-.04642.19466-.09284.29049-.13576,1.06014-.49463,2.12627-.97379,3.20188-1.43748.00299,0,.00599,0,.00948-.00299l14.53251,20.93627c5.72396-2.12328,11.70147-3.73046,17.87015-4.77512l2.11429-25.38696h.00299c1.14998-.13576,2.30246-.25356,3.45843-.35538.08635-.00898.1732-.01547.26254-.02446,1.04467-.08984,2.09283-.16721,3.14648-.23209.18268-.00898.36785-.02446.55004-.03394.96431-.0554,1.93161-.09583,2.90241-.12977.24108-.00599.47616-.02146.71674-.02795,1.17144-.03095,2.34588-.05241,3.52382-.05241v49.68633c-41.16229,0-74.52925,33.36696-74.52925,74.52925h-49.68334c0-1.18093.01847-2.35537.05291-3.52382ZM324.16159,413.51413h-24.84342c0-34.30083,27.80722-62.10754,62.10804-62.10754v24.84292c-20.58139,0-37.26463,16.68373-37.26463,37.26463ZM361.42621,388.67071v24.84292h-24.84342c0-13.71943,11.12349-24.84292,24.84342-24.84292ZM234.12504,598.58795v-19.13443l4.10081,1.75692c3.88518,1.66508,7.55075,3.23832,11.77135,4.29646,10.52154,2.63138,17.8407,1.78886,20.52399-.89443,2.17219-1.76091,3.03068-3.61765,3.03068-6.24904,0-2.34389-.67082-3.88518-2.47166-5.69002-1.98053-1.98452-6.99573-4.63986-13.41646-7.10753-8.1497-3.49387-13.60813-7.09955-17.27769-11.38403-3.46592-4.04091-5.15096-9.39152-5.15096-16.35131,0-8.00196,2.53156-13.81976,8.2056-18.85892,5.25478-4.6758,12.23054-6.85198,21.9455-6.85198,8.38928,0,17.05009,1.80883,25.04007,5.23482l2.63937,1.13401-6.66032,16.65079-2.81506-1.30172c-6.08133-2.80708-12.21457-4.17268-18.75909-4.17268-4.39229,0-6.8959,1.18991-8.22557,2.18816-1.78088,1.33765-2.15622,3.68553-2.15622,5.42249,0,1.59321.37135,2.84701.83054,4.22858.85051,1.21387,1.74095,2.05639,3.54179,3.41002,1.78487,1.33765,5.14697,2.82704,9.4035,4.71173l1.13401.50312c6.39279,2.91089,10.9448,5.19089,13.97149,7.61065,2.64336,2.12028,5.54228,4.77962,7.00371,8.42522,1.37758,3.42599,2.98277,7.42298,2.98277,11.64357,0,8.13373-3.16245,15.07356-8.91236,19.53772-5.72196,4.58396-13.36056,6.7282-24.01387,6.7282-9.41149,0-17.669-1.58123-24.54095-4.70375l-1.72497-.78263ZM290.54606,704.49416c-6.05737,4.8475-14.89786,7.30718-26.26991,7.30718h-5.94158v31.09745h-19.76932v-89.17955h26.82095c10.93282,0,19.38599,2.26004,25.12792,6.7242,6.56848,5.37058,9.46739,12.06683,9.46739,21.76182,0,9.78284-3.17443,17.28168-9.43545,22.2889ZM303.53527,514.33975h24.46109l21.5462,61.0489,22.0573-61.0489h24.44512v89.17955h-19.2103v-44.03475c0-3.37807,0-8.28546.39131-14.08729l-20.92329,58.12204h-16.38725l-18.47958-53.71377c.12778,3.50585.20364,6.91986.20364,10.23405v43.47972h-18.10424v-89.17955ZM358.67454,743.45381l-19.98893-33.31755h-8.16168v33.31755h-19.76932v-89.17955h26.26592c11.14445,0,20.02487,2.32792,25.68694,6.7282,5.82578,4.53205,8.90438,11.67152,8.90438,20.64778,0,10.47363-4.96329,18.34781-14.7621,23.45086l24.40119,38.35272h-22.57639ZM454.75399,731.87413c-7.09555,8.27748-16.97821,12.13471-31.10942,12.13471-13.21282,0-23.6585-4.05688-31.03755-12.05485-7.05163-7.63461-10.77709-19.27019-10.77709-33.64498,0-14.57842,3.62564-25.90256,10.77709-33.64897,7.27524-7.88617,18.00841-12.05086,31.03755-12.05086s23.76231,4.16469,31.03755,12.05086c7.05163,7.6386,10.77709,19.27419,10.77709,33.64897,0,13.98347-3.60168,25.27566-10.70522,33.56512ZM477.07882,413.73125h-43.92494v-99.36918h43.63745v16.27545h-25.05904v24.3393h22.75358v16.26946h-22.75358v26.21202h25.34653v16.27295ZM530.42524,671.81948h-33.31755v20.21254h31.09745v17.54921h-31.09745v33.87258h-19.76533v-89.17955h53.08288v17.54522ZM536.27697,401.63397l-12.09728,12.09728h-27.65249l-12.09678-12.09728v-17.70943h18.43266v10.51106l4.17867,4.03342h6.62338l4.03342-4.03342v-19.30114l-3.16794-3.16495h-19.4404l-10.22756-10.22706v-35.2836l12.09728-12.09678h27.0745l12.10027,12.09678v17.71592h-18.5814v-10.36931l-4.03043-4.17567h-6.04839l-4.17867,4.17567v18.43316l3.17094,3.16794h19.58265l10.22756,10.22706v36.00034ZM559.30258,743.45381h-19.76932v-89.17955h19.76932v89.17955ZM560.7121,330.06253v83.66872h-15.12297v-99.36918h27.93998l10.80205,79.49604,10.6568-79.49604h28.22399v99.36918h-17.13444v-83.66872l-12.82051,83.66872h-19.72789l-12.81701-83.66872ZM629.82286,743.45381h-54.75195v-89.17955h19.76932v71.63034h34.98263v17.54921ZM632.52911,399.61901h11.08955v-71.1417h-11.08955v-14.11524h40.754v14.11524h-11.08605v71.1417h11.08605v14.11224h-40.754v-14.11224ZM690.90371,671.81948h-33.31755v16.88238h31.65247v17.54522h-31.65247v20.21254h33.31755v16.99419h-53.08288v-89.17955h53.08288v17.54522ZM723.35378,328.47731h-11.08605v71.1417h11.08605v14.11224h-40.754v-14.11224h11.08955v-71.1417h-11.08955v-14.11524h40.754v14.11524Z"/><path class="cls-1" d="M953.09531,413.73272v-120.19434h18.38086v120.19434h-18.38086Z"/><path class="cls-1" d="M987.2125,413.73272v-120.19434h12.9668l24.80078,68.55566v-68.55566h15.35938v120.19434h-12.33789l-24.92676-71.81934v71.81934h-15.8623Z"/><path class="cls-1" d="M1055.82383,413.73272v-120.19434h41.92285v15.13574h-23.29102v35.01953h19.00977v15.28418h-19.00977v54.75488h-18.63184Z"/><path class="cls-1" d="M1135.51328,415.36456c-7.21875,0-12.9668-1.58301-17.24707-4.74805s-7.3457-7.7168-9.19043-13.65137c-1.84668-5.93555-2.76953-12.95898-2.76953-21.07129v-44.96191c0-8.11035.92285-15.06152,2.76953-20.84863,1.84473-5.78711,4.91016-10.21289,9.19043-13.28027,4.28027-3.06543,10.02832-4.59961,17.24707-4.59961,7.38477,0,13.19727,1.53418,17.43652,4.59961,4.2373,3.06738,7.30176,7.49316,9.19043,13.28027,1.8877,5.78711,2.83203,12.73828,2.83203,20.84863v45.11035c0,8.0127-.94434,14.96387-2.83203,20.84863-1.88867,5.88672-4.95312,10.4375-9.19043,13.65137-4.23926,3.21289-10.05176,4.82227-17.43652,4.82227ZM1135.51328,399.19073c3.10449,0,5.3916-.79102,6.86133-2.37402,1.46777-1.58203,2.45508-3.75879,2.95801-6.5293.50391-2.76855.75586-5.78711.75586-9.05176v-55.34863c0-3.3623-.25195-6.38086-.75586-9.05176-.50293-2.6709-1.49023-4.77148-2.95801-6.30664-1.46973-1.53223-3.75684-2.2998-6.86133-2.2998-2.93848,0-5.16113.76758-6.67188,2.2998-1.51074,1.53516-2.51855,3.63574-3.02148,6.30664-.50391,2.6709-.75586,5.68945-.75586,9.05176v55.34863c0,3.26465.23047,6.2832.69238,9.05176.46094,2.77051,1.44824,4.94727,2.95898,6.5293,1.51074,1.58301,3.77637,2.37402,6.79785,2.37402Z"/><path class="cls-1" d="M1178.69394,413.73272v-120.19434h24.42285c6.88086,0,12.69434.96484,17.43652,2.89355,4.74121,1.92969,8.35059,5.21973,10.82715,9.86816,2.47461,4.65039,3.71387,10.98047,3.71387,18.99316,0,4.84863-.37793,9.2002-1.13281,13.05859-.75586,3.85742-2.03613,7.14746-3.83984,9.86719-1.80664,2.72266-4.30273,4.82324-7.49121,6.30664l14.22656,59.20703h-18.63281l-12.33789-55.05176h-8.56055v55.05176h-18.63184ZM1197.32578,344.88018h5.79102c3.6084,0,6.4834-.61621,8.62402-1.85449,2.14062-1.23535,3.6709-3.21387,4.59473-5.93555.92285-2.71973,1.38477-6.20703,1.38477-10.46094,0-6.0332-.94336-10.55859-2.83203-13.57812-1.88867-3.01562-5.47656-4.52539-10.76367-4.52539h-6.79883v36.35449Z"/><path class="cls-1" d="M1249.06699,413.73272l1.7627-120.19434h19.26172l14.47754,83.24512,15.10742-83.24512h18.63184l1.88867,120.19434h-13.84863l-1.51074-83.54199-14.47754,83.54199h-11.2041l-14.72949-83.83887-1.38477,83.83887h-13.97461Z"/><path class="cls-1" d="M1330.14218,413.73272l20.39551-120.19434h19.89062l20.39453,120.19434h-17.24707l-4.02832-27.74902h-17.75098l-4.15527,27.74902h-17.49902ZM1353.68418,372.03545h13.84863l-6.92383-50.45117-6.9248,50.45117Z"/><path class="cls-1" d="M1411.2164,413.73272v-104.01953h-16.24023v-16.1748h50.86133v16.1748h-15.98926v104.01953h-18.63184Z"/><path class="cls-1" d="M1455.65488,413.73272v-120.19434h18.38086v120.19434h-18.38086Z"/><path class="cls-1" d="M1517.46836,415.36456c-7.21875,0-12.9668-1.58301-17.24707-4.74805s-7.3457-7.7168-9.19043-13.65137c-1.84668-5.93555-2.76953-12.95898-2.76953-21.07129v-44.96191c0-8.11035.92285-15.06152,2.76953-20.84863,1.84473-5.78711,4.91016-10.21289,9.19043-13.28027,4.28027-3.06543,10.02832-4.59961,17.24707-4.59961,7.38477,0,13.19727,1.53418,17.43652,4.59961,4.2373,3.06738,7.30176,7.49316,9.19043,13.28027,1.8877,5.78711,2.83203,12.73828,2.83203,20.84863v45.11035c0,8.0127-.94434,14.96387-2.83203,20.84863-1.88867,5.88672-4.95312,10.4375-9.19043,13.65137-4.23926,3.21289-10.05176,4.82227-17.43652,4.82227ZM1517.46836,399.19073c3.10449,0,5.3916-.79102,6.86133-2.37402,1.46777-1.58203,2.45508-3.75879,2.95801-6.5293.50391-2.76855.75586-5.78711.75586-9.05176v-55.34863c0-3.3623-.25195-6.38086-.75586-9.05176-.50293-2.6709-1.49023-4.77148-2.95801-6.30664-1.46973-1.53223-3.75684-2.2998-6.86133-2.2998-2.93848,0-5.16113.76758-6.67188,2.2998-1.51074,1.53516-2.51855,3.63574-3.02148,6.30664-.50391,2.6709-.75586,5.68945-.75586,9.05176v55.34863c0,3.26465.23047,6.2832.69238,9.05176.46094,2.77051,1.44824,4.94727,2.95898,6.5293,1.51074,1.58301,3.77637,2.37402,6.79785,2.37402Z"/><path class="cls-1" d="M1560.64902,413.73272v-120.19434h12.9668l24.80078,68.55566v-68.55566h15.35938v120.19434h-12.33789l-24.92676-71.81934v71.81934h-15.8623Z"/><path class="cls-1" d="M952.34043,591.79717l1.7627-120.19336h19.26172l14.47754,83.24512,15.10742-83.24512h18.63184l1.88867,120.19336h-13.84863l-1.51074-83.54199-14.47754,83.54199h-11.2041l-14.72949-83.83887-1.38477,83.83887h-13.97461Z"/><path class="cls-1" d="M1066.27402,593.42999c-7.21875,0-12.9668-1.58398-17.24707-4.74902-4.28027-3.16406-7.3457-7.71582-9.19043-13.65137-1.84668-5.93555-2.76953-12.95801-2.76953-21.07129v-44.96094c0-8.11035.92285-15.06152,2.76953-20.84863,1.84473-5.78711,4.91016-10.21289,9.19043-13.28027,4.28027-3.06543,10.02832-4.60059,17.24707-4.60059,7.38477,0,13.19727,1.53516,17.43652,4.60059,4.2373,3.06738,7.30176,7.49316,9.19043,13.28027,1.8877,5.78711,2.83203,12.73828,2.83203,20.84863v45.10938c0,8.0127-.94434,14.96387-2.83203,20.84863-1.88867,5.88672-4.95312,10.43848-9.19043,13.65137-4.23926,3.21387-10.05176,4.82324-17.43652,4.82324ZM1066.27402,577.25518c3.10449,0,5.3916-.79004,6.86133-2.37402,1.46777-1.58105,2.45508-3.75879,2.95801-6.5293.50391-2.76758.75586-5.78711.75586-9.05176v-55.34766c0-3.3623-.25195-6.38086-.75586-9.05176-.50293-2.6709-1.49023-4.77148-2.95801-6.30664-1.46973-1.5332-3.75684-2.2998-6.86133-2.2998-2.93848,0-5.16113.7666-6.67188,2.2998-1.51074,1.53516-2.51855,3.63574-3.02148,6.30664-.50391,2.6709-.75586,5.68945-.75586,9.05176v55.34766c0,3.26465.23047,6.28418.69238,9.05176.46094,2.77051,1.44824,4.94824,2.95898,6.5293,1.51074,1.58398,3.77637,2.37402,6.79785,2.37402Z"/><path class="cls-1" d="M1109.45371,591.79717v-120.19336h24.0459c8.30859,0,14.79199,1.33496,19.4502,4.00586s7.97266,6.77734,9.94531,12.31641c1.97168,5.54102,2.95898,12.56445,2.95898,21.07129v43.92285c0,8.70605-.9873,15.95117-2.95898,21.73828-1.97266,5.78711-5.24609,10.09082-9.81934,12.91016-4.5752,2.81934-10.84863,4.22852-18.82129,4.22852h-24.80078ZM1128.08554,576.51397h5.66504c4.28125,0,7.34375-.89062,9.19043-2.67188,1.8457-1.78027,2.97852-4.37695,3.39941-7.79004.41895-3.41309.62891-7.59082.62891-12.53906v-46c0-4.8457-.29492-8.75488-.88086-11.72266-.58789-2.96777-1.80566-5.14258-3.65039-6.52832-1.84766-1.38477-4.82812-2.07812-8.93848-2.07812h-5.41406v89.33008Z"/><path class="cls-1" d="M1179.57578,591.79717v-120.19336h42.80371v15.43164h-24.17188v34.57422h19.00977v15.28418h-19.00977v39.76758h24.42383v15.13574h-43.05566Z"/><path class="cls-1" d="M1233.45761,591.79717v-120.19336h18.63184v105.05762h24.67578v15.13574h-43.30762Z"/><path class="cls-1" d="M978.27402,771.49444c-6.12695,0-11.24707-1.40918-15.3584-4.22852-4.11328-2.81934-7.21973-6.94922-9.31641-12.39062-2.09863-5.43945-3.27344-12.11621-3.52441-20.03223l15.98828-3.70996c.16699,4.65137.64844,8.75488,1.44727,12.31641.79688,3.56152,2.01465,6.30664,3.65137,8.23535,1.63672,1.92969,3.7959,2.89355,6.4834,2.89355,3.02148,0,5.16113-1.06152,6.4209-3.19043,1.25879-2.12598,1.8877-4.82227,1.8877-8.08691,0-5.24219-1.00684-9.54492-3.02148-12.90918-2.01367-3.3623-4.70117-6.72656-8.05664-10.09082l-12.8418-13.35449c-3.60938-3.65918-6.4834-7.73926-8.62305-12.24219-2.14062-4.5-3.21094-10.06543-3.21094-16.69434,0-9.49609,2.34961-16.81641,7.05078-21.96094,4.69922-5.14258,11.11914-7.71582,19.26172-7.71582,4.7832,0,8.76855.86719,11.95996,2.59668,3.18848,1.73145,5.72754,4.13184,7.61621,7.19629,1.88867,3.06738,3.29297,6.55469,4.21777,10.46191.92188,3.90918,1.51074,8.03809,1.76172,12.38965l-15.8623,3.26562c-.16895-3.75879-.52539-7.12305-1.07031-10.09082-.54688-2.96777-1.51074-5.29102-2.89551-6.97461-1.38477-1.68066-3.4209-2.52246-6.10547-2.52246-2.76953,0-4.89062,1.06445-6.35742,3.19043-1.46973,2.12793-2.20312,4.77344-2.20312,7.93848,0,4.05762.71191,7.39648,2.13965,10.0166,1.42676,2.62207,3.48242,5.31836,6.16895,8.08691l12.71582,13.20703c4.19531,4.1543,7.7832,9.02832,10.76367,14.61621,2.97754,5.58984,4.46875,12.34082,4.46875,20.25488,0,5.73828-1.07031,10.83203-3.20996,15.2832-2.14062,4.45215-5.12012,7.93945-8.93848,10.46191-3.82031,2.52246-8.28906,3.7832-13.4082,3.7832Z"/><path class="cls-1" d="M1024.9791,769.8626v-104.01953h-16.24023v-16.1748h50.86133v16.1748h-15.98926v104.01953h-18.63184Z"/><path class="cls-1" d="M1063.75351,769.8626l20.39551-120.19434h19.89062l20.39453,120.19434h-17.24707l-4.02832-27.74805h-17.75098l-4.15527,27.74805h-17.49902ZM1087.29551,728.16534h13.84863l-6.92383-50.45117-6.9248,50.45117Z"/><path class="cls-1" d="M1134.63047,769.8626v-120.19434h12.9668l24.80078,68.55566v-68.55566h15.35938v120.19434h-12.33789l-24.92676-71.81934v71.81934h-15.8623Z"/><path class="cls-1" d="M1203.24179,769.8626v-120.19434h24.0459c8.30859,0,14.79199,1.33594,19.4502,4.00684s7.97266,6.77734,9.94531,12.31641c1.97168,5.54102,2.95898,12.56348,2.95898,21.07129v43.92188c0,8.70703-.9873,15.95215-2.95898,21.73926-1.97266,5.78711-5.24609,10.08984-9.81934,12.90918-4.5752,2.81934-10.84863,4.22949-18.82129,4.22949h-24.80078ZM1221.87363,754.57842h5.66504c4.28125,0,7.34375-.88965,9.19043-2.6709,1.8457-1.78027,2.97852-4.37695,3.39941-7.79004.41895-3.41309.62891-7.59082.62891-12.53906v-46c0-4.8457-.29492-8.75488-.88086-11.72266-.58789-2.96777-1.80566-5.14258-3.65039-6.5293-1.84766-1.38379-4.82812-2.07715-8.93848-2.07715h-5.41406v89.3291Z"/><path class="cls-1" d="M1268.20176,769.8626l20.39551-120.19434h19.89062l20.39453,120.19434h-17.24707l-4.02832-27.74805h-17.75098l-4.15527,27.74805h-17.49902ZM1291.74375,728.16534h13.84863l-6.92383-50.45117-6.9248,50.45117Z"/><path class="cls-1" d="M1339.07871,769.8626v-120.19434h24.42285c6.88086,0,12.69434.96484,17.43652,2.89355,4.74121,1.92969,8.35059,5.21973,10.82715,9.86816,2.47461,4.65039,3.71387,10.98047,3.71387,18.99414,0,4.84766-.37793,9.19922-1.13281,13.05762-.75586,3.8584-2.03613,7.14844-3.83984,9.86816-1.80664,2.72168-4.30273,4.82227-7.49121,6.30566l14.22656,59.20703h-18.63281l-12.33789-55.05176h-8.56055v55.05176h-18.63184ZM1357.71054,701.01104h5.79102c3.6084,0,6.4834-.61719,8.62402-1.85547,2.14062-1.23535,3.6709-3.21289,4.59473-5.93555.92285-2.71973,1.38477-6.20605,1.38477-10.46094,0-6.0332-.94336-10.55859-2.83203-13.57812-1.88867-3.01562-5.47656-4.52539-10.76367-4.52539h-6.79883v36.35547Z"/><path class="cls-1" d="M1409.70371,769.8626v-120.19434h24.0459c8.30859,0,14.79199,1.33594,19.4502,4.00684s7.97266,6.77734,9.94531,12.31641c1.97168,5.54102,2.95898,12.56348,2.95898,21.07129v43.92188c0,8.70703-.9873,15.95215-2.95898,21.73926-1.97266,5.78711-5.24609,10.08984-9.81934,12.90918-4.5752,2.81934-10.84863,4.22949-18.82129,4.22949h-24.80078ZM1428.33554,754.57842h5.66504c4.28125,0,7.34375-.88965,9.19043-2.6709,1.8457-1.78027,2.97852-4.37695,3.39941-7.79004.41895-3.41309.62891-7.59082.62891-12.53906v-46c0-4.8457-.29492-8.75488-.88086-11.72266-.58789-2.96777-1.80566-5.14258-3.65039-6.5293-1.84766-1.38379-4.82812-2.07715-8.93848-2.07715h-5.41406v89.3291Z"/><path class="cls-1" d="M1480.32871,769.8626v-120.19434h18.38086v120.19434h-18.38086Z"/><path class="cls-1" d="M1510.92051,769.8626v-14.09668l27.44531-90.96191h-25.93457v-15.13574h44.69238v11.27734l-28.45215,93.78125h28.57812v15.13574h-46.3291Z"/><path class="cls-1" d="M1562.78672,769.8626l20.39551-120.19434h19.89062l20.39453,120.19434h-17.24707l-4.02832-27.74805h-17.75098l-4.15527,27.74805h-17.49902ZM1586.32871,728.16534h13.84863l-6.92383-50.45117-6.9248,50.45117Z"/><path class="cls-1" d="M1643.86093,769.8626v-104.01953h-16.24023v-16.1748h50.86133v16.1748h-15.98926v104.01953h-18.63184Z"/><path class="cls-1" d="M1688.29941,769.8626v-120.19434h18.38086v120.19434h-18.38086Z"/><path class="cls-1" d="M1750.11289,771.49444c-7.21875,0-12.9668-1.58301-17.24707-4.74805s-7.3457-7.71582-9.19043-13.65137c-1.84668-5.93555-2.76953-12.95898-2.76953-21.07129v-44.96094c0-8.11133.92285-15.0625,2.76953-20.84961,1.84473-5.78711,4.91016-10.21289,9.19043-13.28027,4.28027-3.06543,10.02832-4.59961,17.24707-4.59961,7.38477,0,13.19727,1.53418,17.43652,4.59961,4.2373,3.06738,7.30176,7.49316,9.19043,13.28027,1.8877,5.78711,2.83203,12.73828,2.83203,20.84961v45.10938c0,8.0127-.94434,14.96387-2.83203,20.84863-1.88867,5.88672-4.95312,10.4375-9.19043,13.65137-4.23926,3.21387-10.05176,4.82227-17.43652,4.82227ZM1750.11289,755.32061c3.10449,0,5.3916-.79102,6.86133-2.37402,1.46777-1.58105,2.45508-3.75879,2.95801-6.5293.50391-2.76855.75586-5.78711.75586-9.05176v-55.34863c0-3.3623-.25195-6.38086-.75586-9.05176-.50293-2.6709-1.49023-4.77148-2.95801-6.30664-1.46973-1.53223-3.75684-2.2998-6.86133-2.2998-2.93848,0-5.16113.76758-6.67188,2.2998-1.51074,1.53516-2.51855,3.63574-3.02148,6.30664-.50391,2.6709-.75586,5.68945-.75586,9.05176v55.34863c0,3.26465.23047,6.2832.69238,9.05176.46094,2.77051,1.44824,4.94824,2.95898,6.5293,1.51074,1.58301,3.77637,2.37402,6.79785,2.37402Z"/><path class="cls-1" d="M1793.29355,769.8626v-120.19434h12.9668l24.80078,68.55566v-68.55566h15.35938v120.19434h-12.33789l-24.92676-71.81934v71.81934h-15.8623Z"/></svg>